<svg width="37" height="36" viewBox="0 0 37 36" fill="none" xmlns="http://www.w3.org/2000/svg">
<g id="icon / sales ai">
<path id="Rectangle 3366" d="M0.5 6C0.5 2.68629 3.18629 0 6.5 0H30.5C33.8137 0 36.5 2.68629 36.5 6V30C36.5 33.3137 33.8137 36 30.5 36H6.5C3.18629 36 0.5 33.3137 0.5 30V6Z" fill="#414752"/>
<path id="Union" fill-rule="evenodd" clip-rule="evenodd" d="M5 12.9995V11.0005C6.32502 11.0005 7.2523 10.6722 7.91405 10.2313C8.58206 9.78616 9.03989 9.18549 9.35557 8.55442C9.67322 7.91944 9.83702 7.27235 9.91986 6.77558C9.96088 6.52956 9.981 6.32673 9.99082 6.18932C9.99572 6.12078 9.99802 6.06903 9.99909 6.03689C9.99963 6.02084 9.99985 6.00973 9.99995 6.00393L10 6.00116C10 6.00116 10 6.00284 11 6.00284C12 6.00284 12 6.00193 12 6.00193L12.0001 6.00393C12.0001 6.00973 12.0004 6.02084 12.0009 6.03689C12.002 6.06903 12.0043 6.12078 12.0092 6.18932C12.019 6.32673 12.0391 6.52956 12.0801 6.77558C12.163 7.27235 12.3268 7.91944 12.6444 8.55442C12.9601 9.18549 13.4179 9.78616 14.0859 10.2313C14.7477 10.6722 15.675 11.0005 17 11.0005V12.9995C15.675 12.9995 14.7477 13.3278 14.0859 13.7687C13.4179 14.2138 12.9601 14.8145 12.6444 15.4456C12.3268 16.0806 12.163 16.7277 12.0801 17.2244C12.0391 17.4704 12.019 17.6733 12.0092 17.8107C12.0043 17.8792 12.002 17.931 12.0009 17.9631L12.0003 17.9833L12.0001 17.9961L12 17.9988C12 17.9988 12 17.9972 11 17.9972C10 17.9972 10 17.9981 10 17.9981L9.99995 17.9961C9.99985 17.9903 9.99963 17.9792 9.99909 17.9631C9.99802 17.931 9.99572 17.8792 9.99082 17.8107C9.981 17.6733 9.96088 17.4704 9.91986 17.2244C9.83702 16.7277 9.67322 16.0806 9.35557 15.4456C9.03989 14.8145 8.58206 14.2138 7.91405 13.7687C7.2523 13.3278 6.32502 12.9995 5 12.9995ZM14.9167 30H9.5L23.5833 6H29L14.9167 30ZM23 24.7504V26.2496C23.9938 26.2496 24.6892 26.4958 25.1855 26.8265C25.6865 27.1604 26.0299 27.6109 26.2667 28.0842C26.5049 28.5604 26.6278 29.0457 26.6899 29.4183C26.7207 29.6028 26.7358 29.755 26.7431 29.858C26.7468 29.9094 26.7485 29.9482 26.7493 29.9723L26.75 29.9971L26.75 29.9986C26.75 29.9986 26.75 29.9979 27.5 29.9979C28.25 29.9979 28.25 29.9991 28.25 29.9991L28.25 29.9971L28.2507 29.9723C28.2515 29.9482 28.2532 29.9094 28.2569 29.858C28.2642 29.755 28.2793 29.6028 28.3101 29.4183C28.3722 29.0457 28.4951 28.5604 28.7333 28.0842C28.9701 27.6109 29.3135 27.1604 29.8145 26.8265C30.3108 26.4958 31.0062 26.2496 32 26.2496V24.7504C31.0062 24.7504 30.3108 24.5042 29.8145 24.1735C29.3135 23.8396 28.9701 23.3891 28.7333 22.9158C28.4951 22.4396 28.3722 21.9543 28.3101 21.5817C28.2793 21.3972 28.2642 21.245 28.2569 21.142C28.2532 21.0906 28.2515 21.0518 28.2507 21.0277L28.25 21.0029L28.25 21.0014C28.25 21.0014 28.25 21.0021 27.5 21.0021C26.75 21.0021 26.75 21.0009 26.75 21.0009L26.75 21.0029L26.7493 21.0277C26.7485 21.0518 26.7468 21.0906 26.7431 21.142C26.7358 21.245 26.7207 21.3972 26.6899 21.5817C26.6278 21.9543 26.5049 22.4396 26.2667 22.9158C26.0299 23.3891 25.6865 23.8396 25.1855 24.1735C24.6892 24.5042 23.9938 24.7504 23 24.7504Z" fill="url(#paint0_linear_1_9662)"/>
</g>
<defs>
<linearGradient id="paint0_linear_1_9662" x1="17.903" y1="6" x2="17.903" y2="30" gradientUnits="userSpaceOnUse">
<stop stop-color="#8FFFFF"/>
<stop offset="1" stop-color="#5B94FE"/>
</linearGradient>
</defs>
</svg>
