<svg aria-hidden="true" style="position: absolute; width: 0; height: 0; overflow: hidden;" version="1.1" xmlns="http://www.w3.org/2000/svg" xmlns:xlink="http://www.w3.org/1999/xlink">
<defs>
<symbol id="union" viewBox="0 0 37 36">
<path d="M0 6C0 2.68629 2.68629 0 6 0H30C33.3137 0 36 2.68629 36 6V30C36 33.3137 33.3137 36 30 36H6C2.68629 36 0 33.3137 0 30V6Z" fill="#414752"/>
<path fill-rule="evenodd" clip-rule="evenodd" d="M4.5 12.9995V11.0005C5.82502 11.0005 6.7523 10.6722 7.41405 10.2313C8.08206 9.78616 8.53989 9.18549 8.85557 8.55442C9.17322 7.91944 9.33702 7.27235 9.41986 6.77558C9.46088 6.52956 9.481 6.32673 9.49082 6.18932C9.49572 6.12078 9.49802 6.06903 9.49909 6.03689C9.49963 6.02084 9.49985 6.00973 9.49995 6.00393L9.5 6.00116C9.5 6.00116 9.5 6.00284 10.5 6.00284C11.5 6.00284 11.5 6.00193 11.5 6.00193L11.5001 6.00393C11.5001 6.00973 11.5004 6.02084 11.5009 6.03689C11.502 6.06903 11.5043 6.12078 11.5092 6.18932C11.519 6.32673 11.5391 6.52956 11.5801 6.77558C11.663 7.27235 11.8268 7.91944 12.1444 8.55442C12.4601 9.18549 12.9179 9.78616 13.5859 10.2313C14.2477 10.6722 15.175 11.0005 16.5 11.0005V12.9995C15.175 12.9995 14.2477 13.3278 13.5859 13.7687C12.9179 14.2138 12.4601 14.8145 12.1444 15.4456C11.8268 16.0806 11.663 16.7277 11.5801 17.2244C11.5391 17.4704 11.519 17.6733 11.5092 17.8107C11.5043 17.8792 11.502 17.931 11.5009 17.9631L11.5003 17.9833L11.5001 17.9961L11.5 17.9988C11.5 17.9988 11.5 17.9972 10.5 17.9972C9.5 17.9972 9.5 17.9981 9.5 17.9981L9.49995 17.9961C9.49985 17.9903 9.49963 17.9792 9.49909 17.9631C9.49802 17.931 9.49572 17.8792 9.49082 17.8107C9.481 17.6733 9.46088 17.4704 9.41986 17.2244C9.33702 16.7277 9.17322 16.0806 8.85557 15.4456C8.53989 14.8145 8.08206 14.2138 7.41405 13.7687C6.7523 13.3278 5.82502 12.9995 4.5 12.9995ZM14.4167 30H9L23.0833 6H28.5L14.4167 30ZM22.5 24.7504V26.2496C23.4938 26.2496 24.1892 26.4958 24.6855 26.8265C25.1865 27.1604 25.5299 27.6109 25.7667 28.0842C26.0049 28.5604 26.1278 29.0457 26.1899 29.4183C26.2207 29.6028 26.2358 29.755 26.2431 29.858C26.2468 29.9094 26.2485 29.9482 26.2493 29.9723L26.25 29.9971L26.25 29.9986C26.25 29.9986 26.25 29.9979 27 29.9979C27.75 29.9979 27.75 29.9991 27.75 29.9991L27.75 29.9971L27.7507 29.9723C27.7515 29.9482 27.7532 29.9094 27.7569 29.858C27.7642 29.755 27.7793 29.6028 27.8101 29.4183C27.8722 29.0457 27.9951 28.5604 28.2333 28.0842C28.4701 27.6109 28.8135 27.1604 29.3145 26.8265C29.8108 26.4958 30.5062 26.2496 31.5 26.2496V24.7504C30.5062 24.7504 29.8108 24.5042 29.3145 24.1735C28.8135 23.8396 28.4701 23.3891 28.2333 22.9158C27.9951 22.4396 27.8722 21.9543 27.8101 21.5817C27.7793 21.3972 27.7642 21.245 27.7569 21.142C27.7532 21.0906 27.7515 21.0518 27.7507 21.0277L27.75 21.0029L27.75 21.0014C27.75 21.0014 27.75 21.0021 27 21.0021C26.25 21.0021 26.25 21.0009 26.25 21.0009L26.25 21.0029L26.2493 21.0277C26.2485 21.0518 26.2468 21.0906 26.2431 21.142C26.2358 21.245 26.2207 21.3972 26.1899 21.5817C26.1278 21.9543 26.0049 22.4396 25.7667 22.9158C25.5299 23.3891 25.1865 23.8396 24.6855 24.1735C24.1892 24.5042 23.4938 24.7504 22.5 24.7504Z" fill="url(#paint0_linear_1_9486)"/>
<defs>
<linearGradient id="paint0_linear_1_9486" x1="17.403" y1="6" x2="17.403" y2="30" gradientUnits="userSpaceOnUse">
<stop stop-color="#8FFFFF"/>
<stop offset="1" stop-color="#5B94FE"/>
</linearGradient>
</defs>
</symbol>
<symbol id="microsoft-logo" viewBox="0 0 32 32">
<path fill="#f25022" style="fill: var(--color1, #f25022)" d="M15.867 0h-15.2v15.201h15.2v-15.201z"></path>
<path fill="#7fba00" style="fill: var(--color2, #7fba00)" d="M32.667 0h-15.2v15.201h15.2v-15.201z"></path>
<path fill="#00a4ef" style="fill: var(--color3, #00a4ef)" d="M15.867 16.799h-15.2v15.201h15.2v-15.201z"></path>
<path fill="#ffb900" style="fill: var(--color4, #ffb900)" d="M32.667 16.799h-15.2v15.201h15.2v-15.201z"></path>
</symbol>
<symbol id="refresh" viewBox="0 0 32 32">
<path d="M16 2.667v2.667c-1.975 0-3.912 0.548-5.594 1.584s-3.043 2.518-3.932 4.282c-0.889 1.764-1.27 3.74-1.102 5.708 0.158 1.848 0.795 3.621 1.845 5.144 0.419 0.596 0.997 1.324 1.501 1.937 0.236 0.287 0.45 0.543 0.616 0.739v-3.394c0-0.736 0.597-1.333 1.333-1.333s1.333 0.597 1.333 1.333v6.667c0 0.736-0.597 1.333-1.333 1.333h-6.667c-0.736 0-1.333-0.597-1.333-1.333s0.597-1.333 1.333-1.333h3.482l-0.116-0.136c-0.18-0.212-0.43-0.509-0.709-0.849-0.425-0.517-0.935-1.154-1.372-1.749l-0.001 0.001c-0.087-0.118-0.173-0.238-0.256-0.358-0.037-0.052-0.073-0.104-0.108-0.155l0.001-0.001c-1.253-1.871-2.014-4.033-2.206-6.284-0.21-2.46 0.267-4.93 1.378-7.135s2.813-4.058 4.915-5.353c2.102-1.295 4.523-1.98 6.992-1.98zM26.974 8.426c0.036 0.052 0.072 0.103 0.107 0.153l-0.001 0.001c1.252 1.87 2.013 4.030 2.206 6.279 0.211 2.461-0.265 4.931-1.376 7.137s-2.812 4.059-4.915 5.355-4.524 1.981-6.993 1.981v-2.667c1.976 0 3.913-0.549 5.595-1.585s3.043-2.519 3.932-4.284c0.889-1.765 1.27-3.741 1.101-5.71-0.158-1.846-0.795-3.617-1.844-5.14-0.419-0.596-0.998-1.324-1.501-1.938-0.236-0.287-0.45-0.543-0.616-0.739v3.394c0 0.736-0.597 1.333-1.333 1.333s-1.333-0.597-1.333-1.333v-6.667c0-0.736 0.597-1.333 1.333-1.333h6.667c0.736 0 1.333 0.597 1.333 1.333s-0.597 1.333-1.333 1.333h-3.482l0.116 0.136c0.18 0.212 0.43 0.509 0.709 0.849 0.424 0.516 0.932 1.151 1.369 1.744l0.001-0.001c0.089 0.12 0.176 0.242 0.261 0.365z"></path>
</symbol>
<symbol id="rss_feed" viewBox="0 0 32 32">
<path d="M6.667 28c-0.733 0-1.361-0.261-1.883-0.783s-0.783-1.15-0.783-1.883c0-0.733 0.261-1.361 0.783-1.883s1.15-0.783 1.883-0.783c0.733 0 1.361 0.261 1.883 0.783s0.783 1.15 0.783 1.883c0 0.733-0.261 1.361-0.783 1.883s-1.15 0.783-1.883 0.783zM22.667 28c0-2.6-0.489-5.028-1.467-7.283s-2.311-4.228-4-5.917c-1.689-1.689-3.661-3.022-5.917-4s-4.683-1.467-7.283-1.467v-4c3.156 0 6.1 0.589 8.833 1.767s5.133 2.8 7.2 4.867c2.067 2.067 3.689 4.467 4.867 7.2s1.767 5.678 1.767 8.833h-4zM14.667 28c0-1.489-0.278-2.872-0.833-4.15s-1.322-2.406-2.3-3.383-2.106-1.744-3.383-2.3c-1.278-0.556-2.661-0.833-4.15-0.833v-4c2.044 0 3.95 0.383 5.717 1.15s3.317 1.817 4.65 3.15c1.333 1.333 2.383 2.883 3.15 4.65s1.15 3.672 1.15 5.717h-4z"></path>
</symbol>
<symbol id="send" viewBox="0 0 32 32" fill="none">
<path stroke-linejoin="round" stroke-linecap="round" stroke-miterlimit="4" stroke-width="2.6667" d="M8 16l-3.688-9.834c-0.19-0.507-0.066-1.079 0.317-1.462v0c0.421-0.421 1.063-0.525 1.595-0.259l23.109 11.555-23.109 11.555c-0.532 0.266-1.174 0.162-1.595-0.259v0c-0.383-0.383-0.507-0.955-0.317-1.462l3.688-9.834zM8 16h9.333"></path>
</symbol>
<symbol id="sort" viewBox="0 0 32 32">
<path d="M12 24h4v2l-6 6-6-6v-2h4v-12h4v12z"></path>
<path d="M20 8h-4v-2l6-6 6 6v2h-4v12h-4v-12z"></path>
</symbol>
<symbol id="subtract" viewBox="0 0 32 32">
<path d="M4 0h24c2.209 0 4 1.791 4 4v24c0 2.209-1.791 4-4 4h-24c-2.209 0-4-1.791-4-4v-24c0-2.209 1.791-4 4-4zM26.667 8c-1.333 0-2.667-1.333-2.667-2.667h-1.333c0 1.333-1.333 2.667-2.667 2.666v1.333c1.333 0.001 2.667 1.334 2.667 2.668h1.333c0-1.333 1.333-2.667 2.667-2.667v-1.333zM5.333 18.668v1.335c1.767 0 3.003 0.438 3.885 1.026 0.891 0.594 1.501 1.395 1.922 2.237 0.424 0.847 0.642 1.71 0.752 2.373 0.055 0.328 0.082 0.599 0.095 0.782 0.007 0.091 0.010 0.161 0.011 0.203 0.001 0.021 0.001 0.036 0.001 0.044l0 0.003c0-0.001 0-0.001 1.333-0.001s1.333 0.001 1.333 0.001l0-0.003c0-0.004 0-0.011 0-0.019 0-0.007 0-0.015 0.001-0.025 0.001-0.043 0.005-0.112 0.011-0.203 0.013-0.183 0.040-0.454 0.095-0.782 0.111-0.663 0.329-1.526 0.752-2.373 0.421-0.842 1.031-1.643 1.922-2.237 0.882-0.588 2.119-1.026 3.885-1.026v-2.667c-1.767 0-3.003-0.438-3.885-1.026-0.891-0.594-1.501-1.395-1.922-2.237-0.423-0.847-0.642-1.71-0.752-2.373-0.055-0.328-0.081-0.599-0.095-0.782-0.007-0.091-0.010-0.16-0.011-0.203-0.001-0.021-0.001-0.036-0.001-0.044l-0-0.003c0 0.001 0 0.001-1.333 0.001s-1.333-0.001-1.333-0.001l-0 0.003c-0 0.008-0 0.023-0.001 0.044-0.001 0.043-0.005 0.112-0.011 0.203-0.013 0.183-0.040 0.454-0.095 0.782-0.11 0.663-0.329 1.526-0.752 2.373-0.421 0.842-1.031 1.643-1.922 2.237-0.882 0.588-2.119 1.026-3.885 1.026v1.332z"></path>
</symbol>
<symbol id="close" viewBox="0 0 32 32">
<path d="M24.943 8.943c0.521-0.521 0.521-1.365 0-1.886s-1.365-0.521-1.886 0l-7.057 7.057-7.057-7.057c-0.521-0.521-1.365-0.521-1.886 0s-0.521 1.365 0 1.886l7.057 7.057-7.057 7.057c-0.521 0.521-0.521 1.365 0 1.886s1.365 0.521 1.886 0l7.057-7.057 7.057 7.057c0.521 0.521 1.365 0.521 1.886 0s0.521-1.365 0-1.886l-7.057-7.057 7.057-7.057z"></path>
</symbol>
<symbol id="last" viewBox="0 0 32 32">
<path d="M7.057 23.057l7.057-7.057-7.057-7.057c-0.521-0.521-0.521-1.365 0-1.886s1.365-0.521 1.886 0l8 8c0.521 0.521 0.521 1.365 0 1.886l-8 8c-0.521 0.521-1.365 0.521-1.886 0s-0.521-1.365 0-1.886zM24 24v-16c0-0.736-0.597-1.333-1.333-1.333s-1.333 0.597-1.333 1.333v16c0 0.736 0.597 1.333 1.333 1.333s1.333-0.597 1.333-1.333z"></path>
</symbol>
<symbol id="light-mode" viewBox="0 0 32 32">
<path d="M16 20c1.111 0 2.056-0.389 2.833-1.167s1.167-1.722 1.167-2.833c0-1.111-0.389-2.056-1.167-2.833s-1.722-1.167-2.833-1.167-2.056 0.389-2.833 1.167c-0.778 0.778-1.167 1.722-1.167 2.833s0.389 2.056 1.167 2.833c0.778 0.778 1.722 1.167 2.833 1.167zM16 22.667c-1.844 0-3.417-0.65-4.717-1.95s-1.95-2.872-1.95-4.717c0-1.844 0.65-3.417 1.95-4.717s2.872-1.95 4.717-1.95c1.844 0 3.417 0.65 4.717 1.95s1.95 2.872 1.95 4.717c0 1.844-0.65 3.417-1.95 4.717s-2.872 1.95-4.717 1.95zM2.667 17.333c-0.378 0-0.694-0.128-0.95-0.383s-0.383-0.572-0.383-0.95c0-0.378 0.128-0.694 0.383-0.95s0.572-0.383 0.95-0.383h2.667c0.378 0 0.694 0.128 0.95 0.383s0.383 0.572 0.383 0.95c0 0.378-0.128 0.694-0.383 0.95s-0.572 0.383-0.95 0.383h-2.667zM26.667 17.333c-0.378 0-0.694-0.128-0.95-0.383s-0.383-0.572-0.383-0.95c0-0.378 0.128-0.694 0.383-0.95s0.572-0.383 0.95-0.383h2.667c0.378 0 0.694 0.128 0.95 0.383s0.383 0.572 0.383 0.95c0 0.378-0.128 0.694-0.383 0.95s-0.572 0.383-0.95 0.383h-2.667zM16 6.667c-0.378 0-0.694-0.128-0.95-0.383s-0.383-0.572-0.383-0.95v-2.667c0-0.378 0.128-0.694 0.383-0.95s0.572-0.383 0.95-0.383c0.378 0 0.694 0.128 0.95 0.383s0.383 0.572 0.383 0.95v2.667c0 0.378-0.128 0.694-0.383 0.95s-0.572 0.383-0.95 0.383zM16 30.667c-0.378 0-0.694-0.128-0.95-0.383s-0.383-0.572-0.383-0.95v-2.667c0-0.378 0.128-0.694 0.383-0.95s0.572-0.383 0.95-0.383c0.378 0 0.694 0.128 0.95 0.383s0.383 0.572 0.383 0.95v2.667c0 0.378-0.128 0.694-0.383 0.95s-0.572 0.383-0.95 0.383zM7.533 9.4l-1.433-1.4c-0.267-0.244-0.394-0.556-0.383-0.933s0.139-0.7 0.383-0.967c0.267-0.267 0.589-0.4 0.967-0.4s0.689 0.133 0.933 0.4l1.4 1.433c0.244 0.267 0.367 0.578 0.367 0.933s-0.122 0.667-0.367 0.933c-0.244 0.267-0.55 0.394-0.917 0.383s-0.683-0.139-0.95-0.383zM24 25.9l-1.4-1.433c-0.244-0.267-0.367-0.583-0.367-0.95s0.122-0.672 0.367-0.917c0.244-0.267 0.55-0.394 0.917-0.383s0.683 0.139 0.95 0.383l1.433 1.4c0.267 0.244 0.394 0.556 0.383 0.933s-0.139 0.7-0.383 0.967c-0.267 0.267-0.589 0.4-0.967 0.4s-0.689-0.133-0.933-0.4zM22.6 9.4c-0.267-0.244-0.394-0.55-0.383-0.917s0.139-0.683 0.383-0.95l1.4-1.433c0.244-0.267 0.556-0.394 0.933-0.383s0.7 0.139 0.967 0.383c0.267 0.267 0.4 0.589 0.4 0.967s-0.133 0.689-0.4 0.933l-1.433 1.4c-0.267 0.244-0.578 0.367-0.933 0.367s-0.667-0.122-0.933-0.367zM6.1 25.9c-0.267-0.267-0.4-0.589-0.4-0.967s0.133-0.689 0.4-0.933l1.433-1.4c0.267-0.244 0.583-0.367 0.95-0.367s0.672 0.122 0.917 0.367c0.267 0.244 0.394 0.55 0.383 0.917s-0.139 0.683-0.383 0.95l-1.4 1.433c-0.244 0.267-0.556 0.394-0.933 0.383s-0.7-0.139-0.967-0.383z"></path>
</symbol>
<symbol id="like" viewBox="0 0 32 32">
<path d="M18.263 1.334c1.696 0 3.070 1.375 3.070 3.070v0.557c0 0.39-0.063 0.777-0.186 1.147l-1.297 3.225h6.817c2.209 0 4 1.791 4 4v1.486c0 0.509-0.097 1.013-0.286 1.486l-1.036 2.589c-0.036 0.089-0.061 0.182-0.077 0.276l-0.525 3.151c-0.093 0.558-0.304 1.090-0.617 1.561l-1.557 2.336c-0.742 1.113-1.991 1.781-3.328 1.781h-8.573c-1.053 0-2.035-0.305-2.862-0.832-0.272 0.496-0.799 0.832-1.404 0.832h-6.133c-0.884 0-1.6-0.716-1.6-1.6v-14.133c0-0.884 0.716-1.6 1.6-1.6h5.331c0.258-0.79 0.7-1.516 1.298-2.114l2.642-2.642c0.062-0.062 0.118-0.13 0.167-0.203l2.005-3.007c0.569-0.854 1.528-1.367 2.555-1.367zM12 22.667c0 1.473 1.194 2.667 2.667 2.667h8.573c0.446 0 0.862-0.223 1.109-0.594l1.558-2.336c0.105-0.157 0.175-0.334 0.206-0.52l0.525-3.151c0.047-0.284 0.125-0.561 0.232-0.828l1.036-2.589c0.063-0.158 0.095-0.326 0.095-0.495v-1.486c0-0.736-0.597-1.333-1.333-1.333h-8.226c-1.112 0-1.885-1.106-1.502-2.15l1.68-4.585c0.033-0.098 0.049-0.201 0.049-0.304v-0.557c0-0.223-0.181-0.404-0.404-0.404-0.135 0-0.261 0.067-0.336 0.18l-2.005 3.007c-0.146 0.219-0.313 0.423-0.5 0.61l-2.642 2.642c-0.5 0.5-0.781 1.178-0.781 1.886v10.343zM9.333 13.334h-4v12h4v-12z"></path>
</symbol>
<symbol id="logout" viewBox="0 0 32 32">
<path d="M9.333 2.667h13.333c2.209 0 4 1.791 4 4v1.333h-2.667v-1.333c0-0.736-0.597-1.333-1.333-1.333h-13.333c-0.736 0-1.333 0.597-1.333 1.333v18.667c0 0.736 0.597 1.333 1.333 1.333h13.333c0.736 0 1.333-0.597 1.333-1.333v-1.333h2.667v1.333c0 2.209-1.791 4-4 4h-13.333c-2.209 0-4-1.791-4-4v-18.667c0-2.209 1.791-4 4-4zM20.943 9.724l6.276 6.276-6.276 6.276c-0.521 0.521-1.365 0.521-1.886 0s-0.521-1.365 0-1.886l3.057-3.057h-10.114c-0.736 0-1.333-0.597-1.333-1.333s0.597-1.333 1.333-1.333h10.114l-3.057-3.057c-0.521-0.521-0.521-1.365 0-1.886s1.365-0.521 1.886 0z"></path>
</symbol>
<symbol id="menu" viewBox="0 0 32 32">
<path d="M2.667 8c0 0.736 0.597 1.333 1.333 1.333h24c0.736 0 1.333-0.597 1.333-1.333s-0.597-1.333-1.333-1.333h-24c-0.736 0-1.333 0.597-1.333 1.333zM2.667 16c0 0.736 0.597 1.333 1.333 1.333h24c0.736 0 1.333-0.597 1.333-1.333s-0.597-1.333-1.333-1.333h-24c-0.736 0-1.333 0.597-1.333 1.333zM4 22.667h24c0.736 0 1.333 0.597 1.333 1.333s-0.597 1.333-1.333 1.333h-24c-0.736 0-1.333-0.597-1.333-1.333s0.597-1.333 1.333-1.333z"></path>
</symbol>
<symbol id="plus" viewBox="0 0 32 32">
<path d="M17.333 6.667c0-0.736-0.597-1.333-1.333-1.333s-1.333 0.597-1.333 1.333v8h-8c-0.736 0-1.333 0.597-1.333 1.333s0.597 1.333 1.333 1.333h8v8c0 0.736 0.597 1.333 1.333 1.333s1.333-0.597 1.333-1.333v-8h8c0.736 0 1.333-0.597 1.333-1.333s-0.597-1.333-1.333-1.333h-8v-8z"></path>
</symbol>
<symbol id="delete" viewBox="0 0 32 32">
<path d="M12 5.333v-2.667h8v2.667h8v2.667h-1.333v16c0 2.209-1.791 4-4 4h-13.333c-2.209 0-4-1.791-4-4v-16h-1.333v-2.667h8zM8 8v16c0 0.736 0.597 1.333 1.333 1.333h13.333c0.736 0 1.333-0.597 1.333-1.333v-16h-16zM12 10.667h2.667v12h-2.667v-12zM17.333 22.667h2.667v-12h-2.667v12z"></path>
</symbol>
<symbol id="dislike" viewBox="0 0 32 32">
<path d="M13.737 30.666c-1.696 0-3.070-1.375-3.070-3.070v-0.557c0-0.39 0.063-0.777 0.186-1.147l1.297-3.225h-6.817c-2.209 0-4-1.791-4-4v-1.486c0-0.509 0.097-1.013 0.286-1.486l1.036-2.589c0.036-0.089 0.061-0.181 0.077-0.276l0.525-3.151c0.093-0.558 0.303-1.090 0.617-1.561l1.558-2.336c0.742-1.113 1.991-1.781 3.328-1.781h8.573c1.053 0 2.035 0.305 2.862 0.832 0.272-0.496 0.799-0.832 1.404-0.832h6.133c0.884 0 1.6 0.716 1.6 1.6v14.133c0 0.884-0.716 1.6-1.6 1.6h-5.331c-0.258 0.79-0.7 1.516-1.298 2.114l-2.642 2.642c-0.062 0.062-0.118 0.13-0.167 0.203l-2.004 3.007c-0.569 0.854-1.528 1.367-2.555 1.367zM22.667 9.33c0 0.001 0 0.002 0 0.003v9.333h4v-12h-4v2.664zM20 9.33c-0.001-1.471-1.195-2.664-2.667-2.664h-8.573c-0.446 0-0.862 0.223-1.109 0.594l-1.558 2.336c-0.105 0.157-0.175 0.334-0.206 0.52l-0.525 3.151c-0.047 0.284-0.125 0.561-0.232 0.828l-1.036 2.589c-0.063 0.157-0.095 0.326-0.095 0.495v1.486c0 0.736 0.597 1.333 1.333 1.333h8.226c1.112 0 1.885 1.106 1.502 2.15l-1.68 4.585c-0.033 0.098-0.049 0.2-0.049 0.304v0.557c0 0.223 0.181 0.404 0.404 0.404 0.135 0 0.261-0.067 0.336-0.18l2.005-3.007c0.146-0.219 0.313-0.423 0.5-0.61l2.642-2.642c0.499-0.499 0.78-1.176 0.781-1.883v-10.349z"></path>
</symbol>
<symbol id="edit" viewBox="0 0 32 32">
<path d="M24.552 5.333c-1.041-1.041-2.73-1.041-3.771 0l-3.333 3.333 5.886 5.886 3.333-3.333c1.041-1.041 1.041-2.73 0-3.771l-2.114-2.114zM23.333 10.781l-2.114-2.114 1.448-1.448 2.114 2.114-1.448 1.448zM21.886 16l-5.886-5.886-12 12v5.886h5.886l12-12zM6.667 25.333v-2.114l9.333-9.333 2.114 2.114-9.333 9.333h-2.114z"></path>
</symbol>
<symbol id="first" viewBox="0 0 32 32">
<path d="M17.886 16l7.057-7.057c0.521-0.521 0.521-1.365 0-1.886s-1.365-0.521-1.886 0l-8 8c-0.521 0.521-0.521 1.365 0 1.886l8 8c0.521 0.521 1.365 0.521 1.886 0s0.521-1.365 0-1.886l-7.057-7.057zM9.333 6.667c0.736 0 1.333 0.597 1.333 1.333v16c0 0.736-0.597 1.333-1.333 1.333s-1.333-0.597-1.333-1.333v-16c0-0.736 0.597-1.333 1.333-1.333z"></path>
</symbol>
<symbol id="user-icon" viewBox="0 0 32 32">
<path d="M29.705 24.261c-0.1-0.111-0.203-0.219-0.309-0.325-1.667-1.667-3.928-2.603-6.285-2.603h-14.222c-2.357 0-4.618 0.937-6.285 2.603-0.106 0.106-0.209 0.214-0.308 0.325-1.457-2.411-2.295-5.239-2.295-8.261 0-8.837 7.163-16 16-16s16 7.163 16 16c0 3.023-0.838 5.85-2.295 8.261zM27.473 27.153c-2.907 2.99-6.973 4.847-11.473 4.847s-8.565-1.857-11.473-4.847c0.175-0.249 0.372-0.484 0.59-0.702 1-1 2.357-1.562 3.771-1.562h14.222c1.415 0 2.771 0.562 3.771 1.562 0.218 0.218 0.415 0.453 0.59 0.702zM16 14.222c-1.964 0-3.556-1.592-3.556-3.556s1.592-3.556 3.556-3.556c1.964 0 3.556 1.592 3.556 3.556s-1.592 3.556-3.556 3.556zM16 17.778c3.927 0 7.111-3.184 7.111-7.111s-3.184-7.111-7.111-7.111c-3.927 0-7.111 3.184-7.111 7.111s3.184 7.111 7.111 7.111z"></path>
</symbol>
<symbol id="avatar-outline" viewBox="0 0 32 32">
<path d="M16 2.909c-7.23 0-13.091 5.861-13.091 13.091 0 2.475 0.687 4.789 1.88 6.763l0.25-0.269c1.364-1.364 3.214-2.13 5.143-2.13h11.636c1.929 0 3.779 0.766 5.143 2.13l0.25 0.269c1.193-1.974 1.88-4.288 1.88-6.763 0-7.23-5.861-13.091-13.091-13.091zM25.368 25.144l-0.465-0.593c-0.818-0.818-1.928-1.278-3.086-1.278h-11.636c-1.157 0-2.267 0.46-3.086 1.278l-0.465 0.593c2.377 2.435 5.696 3.947 9.368 3.947s6.991-1.512 9.368-3.947zM0 16c0-8.837 7.163-16 16-16s16 7.163 16 16c0 8.837-7.163 16-16 16s-16-7.163-16-16zM16 14.545c-1.607 0-2.909-1.302-2.909-2.909s1.302-2.909 2.909-2.909c1.607 0 2.909 1.302 2.909 2.909s-1.302 2.909-2.909 2.909zM16 17.455c3.213 0 5.818-2.605 5.818-5.818s-2.605-5.818-5.818-5.818c-3.213 0-5.818 2.605-5.818 5.818s2.605 5.818 5.818 5.818z"></path>
</symbol>
<symbol id="chevron-down" viewBox="0 0 32 32">
<path d="M7.057 11.057c0.521-0.521 1.365-0.521 1.886 0l7.057 7.057 7.057-7.057c0.521-0.521 1.365-0.521 1.886 0s0.521 1.365 0 1.886l-8 8c-0.521 0.521-1.365 0.521-1.886 0l-8-8c-0.521-0.521-0.521-1.365 0-1.886z"></path>
</symbol>
<symbol id="chevron-left" viewBox="0 0 32 32">
<path d="M19.609 24.943c0.521-0.521 0.521-1.365 0-1.886l-7.057-7.057 7.057-7.057c0.521-0.521 0.521-1.365 0-1.886s-1.365-0.521-1.886 0l-8 8c-0.521 0.521-0.521 1.365 0 1.886l8 8c0.521 0.521 1.365 0.521 1.886 0z"></path>
</symbol>
<symbol id="chevron-right" viewBox="0 0 32 32">
<path d="M12.391 24.943c-0.521-0.521-0.521-1.365 0-1.886l7.057-7.057-7.057-7.057c-0.521-0.521-0.521-1.365 0-1.886s1.365-0.521 1.886 0l8 8c0.521 0.521 0.521 1.365 0 1.886l-8 8c-0.521 0.521-1.365 0.521-1.886 0z"></path>
</symbol>
<symbol id="collapse-menu" viewBox="0 0 32 32">
<path d="M19.609 7.057c0.521 0.521 0.521 1.365 0 1.886l-5.724 5.724h15.448c0.736 0 1.333 0.597 1.333 1.333s-0.597 1.333-1.333 1.333h-15.448l5.724 5.724c0.521 0.521 0.521 1.365 0 1.886s-1.365 0.521-1.886 0l-8-8c-0.521-0.521-0.521-1.365 0-1.886l8-8c0.521-0.521 1.365-0.521 1.886 0zM4 24v-16c0-0.667 0.597-1.333 1.333-1.333s1.333 0.667 1.333 1.333v16c0 0.667-0.597 1.333-1.333 1.333s-1.333-0.667-1.333-1.333z"></path>
</symbol>
<symbol id="dark-mode" viewBox="0 0 32 32">
<path d="M16 28c-3.333 0-6.167-1.167-8.5-3.5s-3.5-5.167-3.5-8.5c0-3.333 1.167-6.167 3.5-8.5 0.893-0.893 1.86-1.615 2.899-2.167 1.251-0.663 2.635-1.080 4.048-1.252 1.214-0.147 1.739 1.487 1.169 2.569-0.544 1.033-0.817 2.15-0.817 3.35 0 2 0.7 3.7 2.1 5.1s3.1 2.1 5.1 2.1c1.222 0 2.344-0.272 3.367-0.817 1.075-0.572 2.699-0.053 2.554 1.156-0.158 1.319-0.53 2.612-1.117 3.794-0.567 1.142-1.335 2.197-2.304 3.167-2.333 2.333-5.167 3.5-8.5 3.5zM16 25.333c1.956 0 3.711-0.539 5.267-1.617s2.689-2.483 3.4-4.217c-0.444 0.111-0.889 0.2-1.333 0.267s-0.889 0.1-1.333 0.1c-2.733 0-5.061-0.961-6.983-2.883s-2.883-4.25-2.883-6.983c0-0.444 0.033-0.889 0.1-1.333s0.156-0.889 0.267-1.333c-1.733 0.711-3.139 1.844-4.217 3.4s-1.617 3.311-1.617 5.267c0 2.578 0.911 4.778 2.733 6.6s4.022 2.733 6.6 2.733z"></path>
</symbol>
<symbol id="eye-off" viewBox="0 0 32 32" fill="none">
<path stroke-linejoin="round" stroke-linecap="round" stroke-miterlimit="4" stroke-width="2.4" d="M23.92 23.92c-2.279 1.737-5.055 2.7-7.92 2.747-9.333 0-14.667-10.667-14.667-10.667 1.659-3.091 3.959-5.791 6.747-7.92M13.2 5.653c0.918-0.215 1.857-0.322 2.8-0.32 9.333 0 14.667 10.667 14.667 10.667-0.809 1.514-1.775 2.94-2.88 4.253M18.827 18.827c-0.366 0.393-0.808 0.708-1.299 0.927s-1.020 0.336-1.557 0.346c-0.537 0.009-1.071-0.089-1.569-0.291s-0.95-0.501-1.33-0.88c-0.38-0.38-0.679-0.832-0.88-1.33s-0.3-1.032-0.29-1.569c0.009-0.537 0.127-1.067 0.346-1.558s0.534-0.932 0.927-1.298"></path>
<path stroke-linejoin="round" stroke-linecap="round" stroke-miterlimit="4" stroke-width="2.4" d="M1.333 1.333l29.333 29.333"></path>
</symbol>
<symbol id="eye" viewBox="0 0 32 32" fill="none">
<path stroke-linejoin="round" stroke-linecap="round" stroke-miterlimit="4" stroke-width="2.4" d="M1.333 16c0 0 5.333-10.667 14.667-10.667s14.667 10.667 14.667 10.667-5.333 10.667-14.667 10.667c-9.333 0-14.667-10.667-14.667-10.667z"></path>
<path stroke-linejoin="round" stroke-linecap="round" stroke-miterlimit="4" stroke-width="2.4" d="M16 20c2.209 0 4-1.791 4-4s-1.791-4-4-4c-2.209 0-4 1.791-4 4s1.791 4 4 4z"></path>
</symbol>
<symbol id="more-vertical" viewBox="0 0 32 32">
<path d="M18.667 6.667c0-1.473-1.194-2.667-2.667-2.667s-2.667 1.194-2.667 2.667c0 1.473 1.194 2.667 2.667 2.667s2.667-1.194 2.667-2.667z"></path>
<path d="M16 13.333c1.473 0 2.667 1.194 2.667 2.667s-1.194 2.667-2.667 2.667c-1.473 0-2.667-1.194-2.667-2.667s1.194-2.667 2.667-2.667z"></path>
<path d="M16 22.667c1.473 0 2.667 1.194 2.667 2.667s-1.194 2.667-2.667 2.667c-1.473 0-2.667-1.194-2.667-2.667s1.194-2.667 2.667-2.667z"></path>
</symbol>
<symbol id="filter" viewBox="0 0 32 32">
<path d="M2.667 8c0 0.736 0.597 1.333 1.333 1.333h24c0.736 0 1.333-0.597 1.333-1.333s-0.597-1.333-1.333-1.333h-24c-0.736 0-1.333 0.597-1.333 1.333zM6.667 12h18.667c0.736 0 1.333 0.597 1.333 1.333s-0.597 1.333-1.333 1.333h-18.667c-0.736 0-1.333-0.597-1.333-1.333s0.597-1.333 1.333-1.333zM10.667 17.333h10.667c0.736 0 1.333 0.597 1.333 1.333s-0.597 1.333-1.333 1.333h-10.667c-0.736 0-1.333-0.597-1.333-1.333s0.597-1.333 1.333-1.333zM13.333 22.667h5.333c0.736 0 1.333 0.597 1.333 1.333s-0.597 1.333-1.333 1.333h-5.333c-0.736 0-1.333-0.597-1.333-1.333s0.597-1.333 1.333-1.333z"></path>
</symbol>
<symbol id="x-circle" viewBox="0 0 32 32">
<path d="M16 30.667c8.1 0 14.667-6.566 14.667-14.667s-6.566-14.667-14.667-14.667c-8.1 0-14.667 6.566-14.667 14.667s6.566 14.667 14.667 14.667zM22.276 9.724c0.521 0.521 0.521 1.365 0 1.886l-4.39 4.391 4.39 4.39c0.521 0.521 0.521 1.365 0 1.886s-1.365 0.521-1.886 0l-4.391-4.391-4.39 4.391c-0.521 0.521-1.365 0.521-1.886 0s-0.521-1.365 0-1.886l4.391-4.39-4.391-4.391c-0.521-0.521-0.521-1.365 0-1.886s1.365-0.521 1.886 0l4.39 4.391 4.391-4.391c0.521-0.521 1.365-0.521 1.886 0z"></path>
</symbol>
</defs>
</svg>
